<svg width="72" height="72" viewBox="0 0 72 72" fill="none" xmlns="http://www.w3.org/2000/svg">
<path d="M31.5 36L33.18 32.292C34.341 29.721 34.92 28.437 36.036 27.72C37.149 27 38.556 27 41.376 27H42.621C45.441 27 46.851 27 47.964 27.72C49.08 28.44 49.659 29.721 50.823 32.292L52.5 36M57 36H28.923C25.995 36 23.055 38.55 20.637 39.927C19.608 40.512 19.095 40.803 18.621 40.713C18.15 40.623 17.658 40.05 16.671 38.91C14.616 36.522 12.39 36 9 36C7.344 36 6 37.566 6 39.501V53.499C6 55.434 7.344 57 9 57C12.387 57 14.613 56.478 16.674 54.09C17.658 52.95 18.15 52.38 18.624 52.29C19.095 52.197 19.608 52.491 20.634 53.076C23.058 54.45 25.998 57 28.926 57H57C61.971 57 66 52.299 66 46.5C66 40.701 61.971 36 57 36Z" stroke="#F5A623" stroke-width="4.5" stroke-linecap="round" stroke-linejoin="round"/>
<path d="M42 27V15C42 14.2044 42.3161 13.4413 42.8787 12.8787C43.4413 12.3161 44.2044 12 45 12H48" stroke="#F5A623" stroke-width="4.5" stroke-linecap="round" stroke-linejoin="round"/>
</svg>
