<svg width="72" height="72" viewBox="0 0 72 72" fill="none" xmlns="http://www.w3.org/2000/svg">
<path d="M36 18C49.2548 18 60 15.3137 60 12C60 8.68629 49.2548 6 36 6C22.7452 6 12 8.68629 12 12C12 15.3137 22.7452 18 36 18Z" stroke="#F5A623" stroke-width="4.5"/>
<path d="M36 37.5C37.1935 37.5 38.3381 37.0259 39.182 36.182C40.0259 35.3381 40.5 34.1935 40.5 33C40.5 30 36 25.5 36 25.5C36 25.5 31.5 30 31.5 33C31.5 34.1935 31.9741 35.3381 32.818 36.182C33.6619 37.0259 34.8065 37.5 36 37.5Z" stroke="#F5A623" stroke-width="4.5" stroke-linecap="round" stroke-linejoin="round"/>
<path d="M57 15V31.641C58.911 32.931 60 34.419 60 36C60 40.971 49.254 45 36 45C22.746 45 12 40.971 12 36C12 34.419 13.089 32.931 15 31.641V15" stroke="#F5A623" stroke-width="4.5" stroke-linecap="round" stroke-linejoin="round"/>
<path d="M57 40.5V52.641C58.911 53.931 60 55.419 60 57C60 61.971 49.254 66 36 66C22.746 66 12 61.971 12 57C12 55.419 13.089 53.931 15 52.641V40.5" stroke="#F5A623" stroke-width="4.5" stroke-linecap="round" stroke-linejoin="round"/>
</svg>
