<svg width="72" height="72" viewBox="0 0 72 72" fill="none" xmlns="http://www.w3.org/2000/svg">
<path d="M6 64.482C9.885 64.77 13.152 61.5 15.999 61.5C18.846 61.5 23.475 64.515 26.001 64.482C29.031 64.509 32.58 61.5 36 61.5C39.42 61.5 42.969 64.509 45.999 64.482C49.884 64.77 53.151 61.5 56.001 61.5C58.851 61.5 63.474 64.515 66 64.482M18 61.5C13.746 56.202 10.749 49.419 9.471 45.825C9.066 44.685 8.865 44.115 9.099 43.569C9.336 43.026 9.909 42.771 11.064 42.261L33.534 32.307C34.746 31.767 35.355 31.5 36 31.5C36.645 31.5 37.254 31.77 38.469 32.31L60.936 42.261C62.088 42.771 62.664 43.026 62.901 43.569C63.135 44.115 62.931 44.685 62.529 45.825C61.251 49.419 58.254 56.202 54 61.5" stroke="#F5A623" stroke-width="4.5" stroke-linecap="round" stroke-linejoin="round"/>
<path d="M18 39L18.648 30.579C19.053 25.323 19.254 22.695 20.979 21.099C22.704 19.5 25.341 19.5 30.612 19.5H41.388C46.659 19.5 49.296 19.5 51.018 21.099C52.746 22.695 52.947 25.323 53.352 30.579L54 39" stroke="#F5A623" stroke-width="4.5" stroke-linecap="round" stroke-linejoin="round"/>
<path d="M25.5 19.5L26.016 15.384C26.484 11.631 26.718 9.753 27.996 8.625C29.271 7.5 31.161 7.5 34.944 7.5H37.056C40.836 7.5 42.729 7.5 44.004 8.625C45.282 9.753 45.516 11.631 45.984 15.384L46.5 19.5" stroke="#F5A623" stroke-width="4.5" stroke-linecap="round" stroke-linejoin="round"/>
</svg>
