<svg width="72" height="72" viewBox="0 0 72 72" fill="none" xmlns="http://www.w3.org/2000/svg">
<path d="M52.2225 29.3291C51.96 28.7891 51.6731 28.2641 51.3619 27.7541C53.1452 23.8229 53.3542 19.3578 51.9459 15.2772C50.5376 11.1967 47.6191 7.81094 43.7906 5.81657C43.2614 5.54058 42.6442 5.48613 42.0748 5.66519C41.5054 5.84426 41.0305 6.24218 40.7545 6.77141C40.4785 7.30064 40.4241 7.91783 40.6032 8.48721C40.7822 9.05659 41.1801 9.53151 41.7094 9.8075C44.1691 11.0874 46.1277 13.1562 47.2712 15.6822C48.4146 18.2083 48.6765 21.0451 48.015 23.7378C44.7169 20.7675 40.4357 19.1237 35.9972 19.1237C31.5587 19.1237 27.2774 20.7675 23.9794 23.7378C23.3183 21.0445 23.5811 18.2072 24.7256 15.681C25.87 13.1549 27.8299 11.0865 30.2906 9.8075C30.5527 9.67085 30.7852 9.48392 30.975 9.25738C31.1649 9.03084 31.3082 8.76914 31.3968 8.48721C31.4855 8.20529 31.5178 7.90865 31.4918 7.61426C31.4658 7.31986 31.3821 7.03346 31.2455 6.77141C31.1088 6.50936 30.9219 6.2768 30.6953 6.08699C30.4688 5.89719 30.2071 5.75386 29.9252 5.66519C29.6432 5.57653 29.3466 5.54426 29.0522 5.57023C28.7578 5.59621 28.4714 5.67991 28.2094 5.81657C24.3805 7.81046 21.4613 11.196 20.0524 15.2766C18.6436 19.3572 18.8522 23.8226 20.6353 27.7541C20.3231 28.2624 20.0368 28.7862 19.7775 29.3234C15.5986 29.7253 11.7191 31.6686 8.89476 34.7747C6.07047 37.8808 4.50379 41.9272 4.5 46.1253C4.5 46.7221 4.73705 47.2944 5.15901 47.7163C5.58097 48.1383 6.15326 48.3753 6.75 48.3753C7.34674 48.3753 7.91903 48.1383 8.34099 47.7163C8.76295 47.2944 9 46.7221 9 46.1253C9.00396 43.3881 9.91345 40.7292 11.5867 38.5629C13.2599 36.3967 15.6029 34.845 18.2503 34.1497C17.5272 38.4428 18.3861 42.8525 20.6675 46.5604C22.949 50.2684 26.4981 53.0228 30.6562 54.3125C28.7047 56.5253 26.0269 57.968 23.1055 58.3806C20.1841 58.7931 17.2114 58.1483 14.7234 56.5625C14.4748 56.3921 14.1944 56.2734 13.899 56.2134C13.6036 56.1535 13.2991 56.1535 13.0037 56.2135C12.7083 56.2735 12.4279 56.3922 12.1793 56.5627C11.9306 56.7331 11.7188 56.9518 11.5563 57.2057C11.3938 57.4596 11.284 57.7436 11.2334 58.0407C11.1828 58.3379 11.1924 58.6422 11.2617 58.9356C11.331 59.229 11.4585 59.5054 11.6367 59.7486C11.8149 59.9917 12.0402 60.1965 12.2991 60.3509C14.1735 61.5463 16.2656 62.3595 18.4553 62.7438C20.6449 63.1281 22.889 63.076 25.0584 62.5904C27.2279 62.1048 29.28 61.1954 31.0969 59.9143C32.9138 58.6332 34.4596 57.0057 35.6456 55.1253H36.3544C37.5402 57.0074 39.0864 58.6365 40.9041 59.9189C42.7218 61.2013 44.7751 62.1116 46.9459 62.5975C49.1167 63.0834 51.3621 63.1353 53.5531 62.7503C55.744 62.3652 57.8372 61.5507 59.7122 60.3538C59.9711 60.1994 60.1963 59.9945 60.3745 59.7514C60.5527 59.5082 60.6803 59.2318 60.7495 58.9384C60.8188 58.645 60.8285 58.3407 60.7778 58.0435C60.7272 57.7464 60.6174 57.4624 60.4549 57.2085C60.2925 56.9546 60.0806 56.7359 59.832 56.5655C59.5833 56.395 59.303 56.2763 59.0076 56.2163C58.7121 56.1563 58.4077 56.1563 58.1123 56.2162C57.8168 56.2762 57.5365 56.3949 57.2878 56.5653C54.7999 58.1512 51.8272 58.7959 48.9058 58.3834C45.9844 57.9708 43.3065 56.5281 41.355 54.3153C45.5111 53.0234 49.0576 50.2681 51.3369 46.5604C53.6161 42.8527 54.4734 38.4442 53.7497 34.1525C56.3966 34.8477 58.7392 36.399 60.4124 38.5646C62.0856 40.7303 62.9954 43.3886 63 46.1253C63 46.7221 63.2371 47.2944 63.659 47.7163C64.081 48.1383 64.6533 48.3753 65.25 48.3753C65.8467 48.3753 66.419 48.1383 66.841 47.7163C67.2629 47.2944 67.5 46.7221 67.5 46.1253C67.4948 41.9281 65.9275 37.8832 63.1034 34.7782C60.2792 31.6733 56.4004 29.7308 52.2225 29.3291ZM36 23.6253C37.885 23.6247 39.7491 24.0196 41.4718 24.7846C43.1946 25.5496 44.7377 26.6675 46.0013 28.0663C44.8529 29.6427 43.3483 30.9254 41.61 31.8098C39.8717 32.6942 37.9489 33.1551 35.9986 33.1551C34.0483 33.1551 32.1255 32.6942 30.3872 31.8098C28.6489 30.9254 27.1443 29.6427 25.9959 28.0663C27.2598 26.6672 28.8034 25.549 30.5266 24.784C32.2499 24.019 34.1146 23.6243 36 23.6253ZM36.0337 37.6653L36 37.7216L35.9662 37.6653H36.0337ZM22.5 37.1253C22.4993 36.0206 22.6353 34.92 22.905 33.8488C24.7444 34.0778 26.5088 34.7171 28.0679 35.7195C29.6271 36.7219 30.9411 38.0617 31.9131 39.64C32.885 41.2183 33.49 42.9948 33.6833 44.8382C33.8766 46.6817 33.6534 48.545 33.03 50.2906C30.0431 49.6134 27.3747 47.942 25.4617 45.5502C23.5487 43.1585 22.5045 40.188 22.5 37.1253ZM38.9728 50.2906C38.3495 48.545 38.1262 46.6817 38.3195 44.8382C38.5128 42.9948 39.1178 41.2183 40.0897 39.64C41.0617 38.0617 42.3757 36.7219 43.9349 35.7195C45.494 34.7171 47.2585 34.0778 49.0978 33.8488C49.534 35.594 49.6169 37.4087 49.3418 39.1864C49.0667 40.9642 48.4391 42.669 47.4958 44.2007C46.5526 45.7324 45.3127 47.0602 43.8491 48.106C42.3854 49.1518 40.7276 49.8946 38.9728 50.2906Z" fill="#F5A623"/>
</svg>
