<svg width="72" height="72" viewBox="0 0 72 72" fill="none" xmlns="http://www.w3.org/2000/svg">
<path d="M51.75 56.1387C51.75 57.3321 52.2241 58.4767 53.068 59.3207C53.9119 60.1646 55.0565 60.6387 56.25 60.6387C57.4435 60.6387 58.5881 60.1646 59.432 59.3207C60.2759 58.4767 60.75 57.3321 60.75 56.1387C60.75 54.9452 60.2759 53.8006 59.432 52.9567C58.5881 52.1128 57.4435 51.6387 56.25 51.6387C55.0565 51.6387 53.9119 52.1128 53.068 52.9567C52.2241 53.8006 51.75 54.9452 51.75 56.1387ZM51.75 56.1387H24.75M24.75 56.1387C24.75 57.3321 24.2759 58.4767 23.432 59.3207C22.5881 60.1646 21.4435 60.6387 20.25 60.6387C19.0565 60.6387 17.9119 60.1646 17.068 59.3207C16.2241 58.4767 15.75 57.3321 15.75 56.1387C15.75 54.9452 16.2241 53.8006 17.068 52.9567C17.9119 52.1128 19.0565 51.6387 20.25 51.6387C21.4435 51.6387 22.5881 52.1128 23.432 52.9567C24.2759 53.8006 24.75 54.9452 24.75 56.1387ZM56.25 38.1387H47.25C46.0565 38.1387 44.9119 37.6646 44.068 36.8207C43.2241 35.9767 42.75 34.8321 42.75 33.6387V24.6387" stroke="#F5A623" stroke-width="4.5" stroke-linecap="round" stroke-linejoin="round"/>
<path d="M60.75 56.1383H65.25C66.4435 56.1383 67.5881 55.6642 68.432 54.8203C69.2759 53.9764 69.75 52.8318 69.75 51.6383V47.1383C69.75 45.9449 69.2759 44.8003 68.432 43.9564C67.5881 43.1124 66.4435 42.6383 65.25 42.6383H56.25V33.6383C56.25 22.3883 47.997 16.7573 37.215 15.7883C36.7751 15.7501 36.3321 15.8037 35.914 15.9456C35.4959 16.0875 35.1118 16.3147 34.786 16.6128C34.4603 16.9109 34.2 17.2734 34.0217 17.6773C33.8434 18.0812 33.7508 18.5178 33.75 18.9593V42.6383M33.75 42.6383H6.75C5.55653 42.6383 4.41193 43.1124 3.56802 43.9564C2.72411 44.8003 2.25 45.9449 2.25 47.1383V51.6383C2.25 52.8318 2.72411 53.9764 3.56802 54.8203C4.41193 55.6642 5.55653 56.1383 6.75 56.1383H15.75M33.75 42.6383V56.1383M53.964 24.6383H33.75" stroke="#F5A623" stroke-width="4.5" stroke-linecap="round" stroke-linejoin="round"/>
<path d="M24.75 42.6387V15.6387C24.75 14.4452 24.2759 13.3006 23.432 12.4567C22.5881 11.6128 21.4435 11.1387 20.25 11.1387H15.75" stroke="#F5A623" stroke-width="4.5" stroke-linecap="round" stroke-linejoin="round"/>
</svg>
