<svg width="72" height="72" viewBox="0 0 72 72" fill="none" xmlns="http://www.w3.org/2000/svg">
<path d="M2.25 22.5C2.25 27.2739 4.14642 31.8523 7.52208 35.2279C10.8977 38.6036 15.4761 40.5 20.25 40.5C25.0239 40.5 29.6023 38.6036 32.9779 35.2279C36.3536 31.8523 38.25 27.2739 38.25 22.5C38.25 17.7261 36.3536 13.1477 32.9779 9.77208C29.6023 6.39642 25.0239 4.5 20.25 4.5C15.4761 4.5 10.8977 6.39642 7.52208 9.77208C4.14642 13.1477 2.25 17.7261 2.25 22.5Z" stroke="#F5A623" stroke-width="4.5" stroke-linecap="round" stroke-linejoin="round"/>
<path d="M12.294 22.4999H20.25V14.5439M42.75 35.9999H47.25C48.4435 35.9999 49.5881 36.4741 50.432 37.318C51.2759 38.1619 51.75 39.3065 51.75 40.4999M51.75 40.4999V56.3639M51.75 40.4999H60.75C63.1369 40.4999 65.4261 41.4482 67.114 43.136C68.8018 44.8238 69.75 47.113 69.75 49.4999V58.4999C69.75 59.6934 69.2759 60.838 68.432 61.6819C67.5881 62.5258 66.4435 62.9999 65.25 62.9999H58.386M22.5 62.9999H20.25C19.0565 62.9999 17.9119 62.5258 17.068 61.6819C16.2241 60.838 15.75 59.6934 15.75 58.4999V49.4999" stroke="#F5A623" stroke-width="4.5" stroke-linecap="round" stroke-linejoin="round"/>
<path d="M47.364 63H33.75M69.75 49.5H60.75M47.25 61.875C47.25 63.3668 47.8426 64.7976 48.8975 65.8525C49.9524 66.9074 51.3832 67.5 52.875 67.5C54.3668 67.5 55.7976 66.9074 56.8525 65.8525C57.9074 64.7976 58.5 63.3668 58.5 61.875C58.5 60.3832 57.9074 58.9524 56.8525 57.8975C55.7976 56.8426 54.3668 56.25 52.875 56.25C51.3832 56.25 49.9524 56.8426 48.8975 57.8975C47.8426 58.9524 47.25 60.3832 47.25 61.875ZM22.5 61.875C22.5 63.3668 23.0926 64.7976 24.1475 65.8525C25.2024 66.9074 26.6332 67.5 28.125 67.5C29.6168 67.5 31.0476 66.9074 32.1025 65.8525C33.1574 64.7976 33.75 63.3668 33.75 61.875C33.75 60.3832 33.1574 58.9524 32.1025 57.8975C31.0476 56.8426 29.6168 56.25 28.125 56.25C26.6332 56.25 25.2024 56.8426 24.1475 57.8975C23.0926 58.9524 22.5 60.3832 22.5 61.875Z" stroke="#F5A623" stroke-width="4.5" stroke-linecap="round" stroke-linejoin="round"/>
</svg>
